<svg version="1.1" id="Layer_1" xmlns="http://www.w3.org/2000/svg" xmlns:xlink="http://www.w3.org/1999/xlink" x="0px" y="0px"
	 width="100%" viewBox="0 0 656 544" enable-background="new 0 0 656 544" xml:space="preserve">
<path fill="#000000" opacity="1.000000" stroke="none" 
	d="
M78.468658,545.000000 
	C68.988876,540.766113 59.952965,536.583923 50.974972,532.280945 
	C44.521862,529.188049 38.022026,526.157837 31.768501,522.692688 
	C24.659643,518.753601 23.621094,515.500244 26.386284,507.888641 
	C32.020535,492.379578 40.523262,478.083160 45.677872,462.368469 
	C54.233768,436.284393 65.727127,411.113068 71.760315,384.284454 
	C75.651314,366.981873 77.140305,349.138031 79.677444,331.532684 
	C80.525101,325.650757 82.263435,319.858826 81.693092,313.213287 
	C79.480873,315.084778 77.767365,316.847565 75.765541,318.175842 
	C64.664352,325.541901 51.562283,322.944641 43.688297,311.863953 
	C38.841774,305.043640 36.962090,297.360565 38.008022,289.134064 
	C38.494614,285.306915 38.660645,281.513794 38.670792,277.687744 
	C38.765392,242.022064 38.903683,206.356430 38.920422,170.690704 
	C38.929409,151.540054 44.765987,135.038925 60.003613,122.605957 
	C71.411392,113.297913 84.807533,110.203880 99.146263,110.029213 
	C99.979424,110.019066 100.843430,110.121223 101.639923,109.938873 
	C105.206848,109.122299 110.711464,111.815567 112.067192,107.819572 
	C113.701271,103.003143 113.002441,97.110580 109.817581,92.504395 
	C103.671265,83.615128 99.244659,74.129570 97.195900,63.428463 
	C92.272957,37.714825 110.675461,12.696486 136.756805,9.504791 
	C146.584885,8.302088 155.954758,10.285948 165.421387,12.038654 
	C170.488571,12.976821 175.498489,14.236525 180.577255,15.097394 
	C191.438049,16.938337 194.386597,24.703659 192.826462,34.862011 
	C192.055405,39.882523 190.313156,44.932590 185.910797,48.350185 
	C184.147552,49.719002 184.458450,51.341808 184.986053,53.283058 
	C186.642181,59.376492 188.183090,65.507942 189.535934,71.675713 
	C192.383698,84.659035 188.566895,95.328331 178.051666,103.525391 
	C175.226410,105.727791 172.341583,107.853783 168.426987,110.814346 
	C177.637238,109.107483 185.421280,110.000168 193.335754,111.431938 
	C215.376053,115.419136 233.900787,134.373749 237.371658,156.823853 
	C238.476425,163.969635 238.141815,171.107285 238.374100,178.253647 
	C238.545609,183.530121 239.559326,184.137894 244.862061,183.098373 
	C257.615479,180.598297 269.162628,175.130478 280.532227,169.109467 
	C290.040405,164.074188 299.900665,163.573303 309.905945,167.619614 
	C311.585632,168.298950 313.322083,169.089508 314.697205,170.232025 
	C331.371246,184.085983 349.760162,195.598389 367.004120,208.684082 
	C405.228821,237.691223 443.742859,266.316833 482.093140,295.158905 
	C491.944977,302.568146 502.551544,308.949188 511.896851,317.035065 
	C514.257446,319.077484 515.486694,318.057190 517.092712,316.020111 
	C523.305969,308.139099 528.456482,299.966736 530.459290,289.744781 
	C533.360962,274.935059 551.541931,260.974976 568.504822,261.405548 
	C583.445251,261.784821 596.304443,265.651184 607.083069,276.076202 
	C610.983215,279.848358 613.941040,284.288483 616.119446,289.164612 
	C617.964722,293.295135 620.921021,295.067688 625.245239,295.826630 
	C629.969299,296.655792 634.617859,298.066132 639.194519,299.547089 
	C645.321106,301.529541 648.159485,306.005035 648.298279,312.405792 
	C648.463074,320.006348 647.292603,327.347198 644.368469,334.368195 
	C640.462708,343.745911 633.709900,349.951721 623.730591,352.328400 
	C612.889282,354.910370 601.928894,356.981354 591.409546,360.845764 
	C588.006836,362.095795 586.758728,363.841248 586.102295,367.546570 
	C584.129578,378.682251 584.718079,390.160553 581.458740,401.092529 
	C580.604004,403.959015 580.173706,407.111481 578.661560,409.592010 
	C574.442810,416.512695 575.442932,423.016174 577.927368,430.369995 
	C585.288513,452.158752 594.193909,473.344025 602.276123,494.846802 
	C604.499573,500.762268 607.618347,506.300262 611.167053,511.590485 
	C614.365906,516.359131 616.725403,521.525818 615.681763,527.519226 
	C614.133850,536.407959 606.525269,542.008362 595.720032,543.377686 
	C582.816833,545.012878 574.003540,539.897766 567.714905,528.814514 
	C557.195496,510.274780 545.560303,492.380249 535.548950,473.539917 
	C534.861267,472.245880 534.361450,470.759491 532.790894,469.946167 
	C530.440430,470.262634 529.918823,472.416321 529.089905,474.105164 
	C520.798950,490.997498 512.546204,507.889191 507.265839,526.072998 
	C504.639191,535.118286 499.558289,542.312988 489.309052,544.821289 
	C486.299988,545.000000 483.599976,545.000000 480.137268,544.813171 
	C478.100800,544.245972 476.841492,543.805359 475.550903,543.494873 
	C464.196503,540.762817 457.224182,529.946045 459.701874,518.512512 
	C461.637390,509.580902 463.717682,500.674469 466.002533,491.826294 
	C469.368164,478.792603 472.859314,465.795807 475.479065,452.580200 
	C476.256378,448.658905 475.575684,446.375397 471.061676,445.617920 
	C463.200165,444.298676 455.389709,442.610596 447.631378,440.767548 
	C443.404755,439.763489 441.697052,440.640442 441.196198,445.325012 
	C439.841614,457.994171 436.813751,470.170197 429.304962,480.906586 
	C421.354767,492.274109 421.497375,494.297913 429.360291,505.801392 
	C430.578064,507.583069 431.992340,509.237000 433.387146,510.889740 
	C435.973450,513.954163 438.488800,517.054749 439.893494,520.884338 
	C443.149841,529.762329 440.691132,538.029175 433.378448,542.246704 
	C431.385773,543.395874 429.133270,544.094604 427.000000,545.000000 
	C421.645081,545.000000 416.290131,545.000000 410.154846,544.814270 
	C401.748627,543.838013 396.627533,539.304932 392.642609,533.231079 
	C383.548859,519.370422 377.053040,504.267456 371.563354,488.693665 
	C370.594757,485.945709 370.728210,482.696960 367.643646,480.399139 
	C364.872314,481.897095 362.065308,483.674835 359.055634,484.988129 
	C352.312622,487.930573 348.791321,493.097412 347.668854,500.210663 
	C346.633484,506.771942 345.192657,513.277771 344.374298,519.863159 
	C342.171600,537.589478 332.931763,545.090576 315.164886,543.254883 
	C303.856354,542.086487 293.859161,530.149048 295.020325,519.132019 
	C296.902466,501.274017 298.839722,483.420807 299.741821,465.477936 
	C300.018677,459.971619 301.467987,455.608032 306.591370,452.136139 
	C315.396820,446.169006 323.584137,439.279816 331.936554,432.658630 
	C335.621460,429.737518 337.300903,425.870819 337.829224,421.030212 
	C338.981995,410.468079 339.584808,399.676270 342.883972,389.581146 
	C345.505341,381.559967 344.714447,375.810852 337.140045,371.562256 
	C336.313263,371.098511 335.772827,370.122528 335.102814,369.381226 
	C318.924072,351.480499 313.908447,330.607361 318.874115,307.240479 
	C321.463104,295.057404 327.891815,285.460083 339.300598,279.760590 
	C346.812103,276.008057 353.962891,279.564301 355.458130,287.762299 
	C355.963104,290.530762 356.102722,293.375305 356.276062,296.193268 
	C357.221558,311.566772 362.360229,324.638397 375.687836,333.724701 
	C380.839478,337.236908 385.597229,340.767395 392.300842,340.736267 
	C422.631012,340.595551 452.962311,340.711273 483.292847,340.618683 
	C487.774933,340.604980 492.262573,340.044159 496.733154,339.593018 
	C499.118042,339.352325 501.632782,338.517700 502.358276,336.108307 
	C503.081482,333.706329 500.448486,332.874847 498.938873,331.753113 
	C491.718597,326.387970 484.358643,321.209869 477.165283,315.809540 
	C431.202362,281.303192 385.271606,246.754044 339.326019,212.224609 
	C334.479065,208.581970 329.604736,204.975754 324.386566,201.086945 
	C321.070404,209.794266 315.231812,215.409119 307.668823,218.955200 
	C304.362488,220.505432 303.153900,222.244614 303.322784,225.712891 
	C303.946747,238.527298 304.498993,251.352249 304.059418,264.183777 
	C303.797272,271.837128 303.358185,279.484711 299.988525,286.615967 
	C295.544617,296.020630 287.851044,300.866913 277.805786,301.090912 
	C267.545624,301.319733 259.736481,296.261200 254.412781,287.428009 
	C247.287430,275.605530 248.378143,262.487732 248.343887,249.542343 
	C248.328339,243.668335 248.341248,237.794281 248.341248,231.332962 
	C241.821304,233.257080 235.846497,234.709442 230.097397,236.786484 
	C220.360809,240.304123 212.540009,237.621262 205.774963,230.310242 
	C204.533569,228.968658 203.705032,227.007599 201.208237,226.367355 
	C200.907928,241.418060 201.505173,256.071381 200.380264,270.699280 
	C198.963257,289.125397 202.541107,307.150696 205.305389,325.228149 
	C209.147903,350.356720 212.769043,375.521088 216.847824,400.611115 
	C221.487656,429.152374 226.708298,457.602051 230.332504,486.299835 
	C231.188919,493.081360 234.144669,497.613892 240.894897,499.864655 
	C248.625702,502.442352 256.077057,505.853424 263.793610,508.480103 
	C270.322174,510.702362 273.504272,515.200562 274.189911,521.728638 
	C275.108948,530.478271 274.319489,538.765381 267.000000,545.000000 
	C238.979111,545.000000 210.958206,545.000000 182.318832,544.658691 
	C179.745941,540.565430 179.085052,536.538574 178.590958,532.353088 
	C176.975998,518.673035 176.550476,504.863129 173.664200,491.316650 
	C167.844070,464.000458 161.102890,436.908173 154.269043,409.836578 
	C151.619400,399.340332 148.949326,388.842224 145.100861,377.691406 
	C139.745529,393.323608 133.353638,407.374023 126.404381,421.202240 
	C114.970818,443.953705 104.119263,466.983124 93.872200,490.299713 
	C91.935722,494.706024 92.859665,497.522308 96.828300,499.809875 
	C101.728630,502.634430 106.585312,505.535187 111.445213,508.429291 
	C118.158218,512.427002 121.222145,518.204285 121.480316,526.156860 
	C121.710060,533.233643 119.217949,539.128479 116.000000,545.000000 
	C103.645775,545.000000 91.291542,545.000000 78.468658,545.000000 
M485.486359,490.891022 
	C483.618286,498.988129 481.797028,507.096558 479.850891,515.174866 
	C479.330719,517.333923 479.062775,519.490967 479.601837,521.592773 
	C480.499756,525.093811 483.123962,526.123596 486.499847,525.952698 
	C489.814270,525.784790 490.788849,523.742981 490.597321,520.902832 
	C490.317780,516.756714 491.735870,513.046570 493.220123,509.322937 
	C501.186951,489.336426 511.067932,470.251984 520.772095,451.090515 
	C526.095764,440.578613 533.331482,431.823090 543.004944,424.656647 
	C555.444214,415.441162 563.080505,402.892639 565.876099,387.236725 
	C566.961914,381.156036 565.488831,378.002136 560.502869,375.190857 
	C547.713745,367.979858 535.730225,359.543335 524.260193,350.388489 
	C521.888611,348.495605 519.812073,347.974762 517.137268,349.962921 
	C509.197144,355.864685 499.866699,357.812500 490.300476,358.159912 
	C456.325928,359.393890 422.328857,359.008728 388.339661,359.123383 
	C383.974579,359.138123 379.771759,358.312347 375.867920,356.082123 
	C356.715149,345.140289 344.360321,329.313568 340.374359,307.323730 
	C340.087219,305.739532 340.139862,303.773193 338.168274,302.224060 
	C336.163910,310.501556 335.694946,318.374603 336.750977,326.345703 
	C339.116302,344.199585 347.300598,358.400909 362.873749,367.980225 
	C363.855194,368.583954 364.720428,369.408234 365.549255,370.222046 
	C367.434631,372.073303 367.959747,374.359253 366.606140,376.600922 
	C359.915802,387.680664 359.330231,400.340271 357.421173,412.584625 
	C355.107422,427.424957 351.108124,441.172089 338.725891,451.069702 
	C333.376770,455.345398 327.815643,459.297211 322.020874,462.905945 
	C319.708588,464.345917 318.539581,465.984894 318.030060,468.730194 
	C315.891571,480.252533 316.717712,491.976471 315.376465,503.545624 
	C314.859589,508.004028 314.602661,512.500854 314.428223,516.987976 
	C314.293457,520.454590 316.271881,522.664917 319.489716,523.528503 
	C323.066040,524.488281 324.631287,522.065430 325.725983,519.234558 
	C326.142303,518.157959 326.506104,517.033020 326.685760,515.897278 
	C328.399109,505.067230 330.060242,494.228973 331.753967,483.395813 
	C332.224243,480.387909 332.875519,477.666168 336.176208,476.156738 
	C343.441925,472.834167 350.581055,469.232147 357.742767,465.685425 
	C378.311920,455.498840 396.335907,442.710083 405.892975,420.605377 
	C409.148621,413.075409 413.538666,411.860870 421.435150,414.593933 
	C424.724304,415.732361 427.823151,417.311951 431.369507,417.829041 
	C445.841278,419.939087 460.360504,421.763184 474.533936,425.618713 
	C482.061310,427.666351 482.129242,427.416565 484.673401,419.776123 
	C486.438965,414.473907 492.542633,411.090149 498.319244,412.887909 
	C503.831848,414.603546 501.572449,419.263977 501.306519,423.036041 
	C501.271606,423.531342 501.160461,424.024872 501.046936,424.510406 
	C495.935059,446.369354 490.818909,468.227264 485.486359,490.891022 
M196.420822,131.025024 
	C189.167557,128.243591 181.613831,127.321518 173.898346,127.314072 
	C171.729797,127.311981 170.199539,127.789894 169.181168,130.068298 
	C163.890671,141.904816 154.226700,147.165558 141.686569,147.232742 
	C128.743896,147.302078 118.302803,142.432571 112.221893,130.358307 
	C111.186775,128.302963 110.011330,127.304169 107.643623,127.422943 
	C101.837173,127.714211 96.040169,127.467270 90.214050,128.229370 
	C70.504005,130.807632 56.060040,148.142258 57.315205,168.069260 
	C57.441940,170.081299 57.658470,171.775742 60.167534,171.879730 
	C66.153847,172.127869 72.139900,172.383194 78.127037,172.609756 
	C80.546570,172.701340 81.102615,171.442551 81.096840,169.138367 
	C81.079643,162.278946 82.277451,161.040588 88.119598,161.066223 
	C96.026779,161.100906 99.192635,163.573776 99.187309,169.907990 
	C99.180588,177.906738 98.964798,185.905716 98.993752,193.904022 
	C99.084206,218.892868 99.340057,243.881607 99.294586,268.869965 
	C99.286674,273.220459 101.287437,273.718384 104.800941,273.706818 
	C128.798828,273.627808 152.797119,273.674988 176.795288,273.679382 
	C183.631012,273.680634 183.648956,273.677490 183.649307,266.728455 
	C183.650955,234.231415 183.631165,201.734344 183.659607,169.237335 
	C183.661591,166.971313 182.822037,164.136978 185.067352,162.698685 
	C188.912140,160.235764 193.301575,160.302231 197.612946,161.478577 
	C201.413254,162.515457 201.287796,165.720673 201.364182,168.758072 
	C201.412430,170.676041 201.544022,172.847992 204.190094,172.413605 
	C208.389374,171.724213 212.476746,172.948639 216.641724,172.721207 
	C219.058441,172.589264 220.241028,172.067245 220.193649,169.281815 
	C219.901199,152.091263 212.532959,139.286469 196.420822,131.025024 
M95.145439,352.398254 
	C94.183418,358.809631 93.301079,365.234222 92.241432,371.629425 
	C90.479820,382.261108 90.355820,393.229889 86.102745,403.360626 
	C78.365852,421.789642 71.521408,440.526703 65.750465,459.672607 
	C62.202972,471.441956 61.981140,471.375092 72.365128,477.573273 
	C72.651184,477.744049 72.939293,477.911499 73.222725,478.086517 
	C78.221016,481.172668 78.622864,481.195587 81.112511,475.599274 
	C85.508949,465.716858 89.558739,455.680725 93.903084,445.774475 
	C100.388779,430.985443 107.872787,416.674927 114.948738,402.167755 
	C124.161156,383.280365 130.198639,363.123810 137.672424,343.542297 
	C140.983673,334.866699 145.957230,326.830261 147.494583,317.454926 
	C148.735306,309.888580 150.864029,308.740295 158.639160,309.229706 
	C163.492233,309.535187 165.046997,311.524414 164.381180,316.164459 
	C163.261841,323.965027 160.328171,331.244659 158.188095,338.748535 
	C157.294830,341.880676 156.967178,344.961212 157.634262,348.103516 
	C158.669312,352.979034 159.693100,357.865265 160.981033,362.677521 
	C171.340424,401.384369 181.087631,440.238708 189.483627,479.425140 
	C191.265167,487.740082 191.360474,487.695404 200.251282,486.797455 
	C202.068939,486.613861 203.911926,486.677460 205.743423,486.635406 
	C209.648483,486.545685 211.803574,485.508209 211.019577,480.669617 
	C205.278305,445.235718 200.084137,409.710999 194.098495,374.319580 
	C189.635391,347.930511 184.415222,321.668640 181.675339,295.017426 
	C181.354187,291.893463 179.960037,291.226624 177.167374,291.236572 
	C153.364410,291.321289 129.560974,291.345154 105.758034,291.274109 
	C102.610275,291.264740 101.404060,292.284363 101.181236,295.534882 
	C99.897011,314.268066 98.682938,333.016846 95.145439,352.398254 
M532.160950,329.290283 
	C544.830566,340.543274 558.020203,351.080658 573.217529,359.689240 
	C574.461060,355.349426 576.771179,352.551147 580.195068,350.469391 
	C590.905273,343.957336 601.739868,337.851166 614.536743,336.461914 
	C623.388184,335.500977 628.660889,331.058105 629.955383,321.767670 
	C630.833618,315.464539 630.846130,314.578552 624.575378,314.330902 
	C612.534119,313.855347 603.405457,309.454376 599.264954,297.239929 
	C598.266357,294.294067 596.327332,291.660919 594.766235,288.914948 
	C594.211975,287.939972 593.698730,286.786255 591.683960,287.033478 
	C591.194031,289.485840 591.486694,292.048920 591.698669,294.654266 
	C592.400818,303.283813 593.011597,311.932587 591.319458,320.521301 
	C588.523987,334.710510 576.094788,343.520142 561.982849,341.296295 
	C553.527832,339.963898 548.661194,333.690643 543.545837,327.731934 
	C540.298523,323.949219 538.936829,319.057739 535.889526,314.575043 
	C533.994446,318.308533 532.348572,321.535034 530.718506,324.769531 
	C529.918457,326.357056 530.448059,327.660095 532.160950,329.290283 
M266.852692,210.124481 
	C275.349548,208.593399 283.872498,207.190903 292.331573,205.473755 
	C296.210938,204.686264 300.199799,204.025284 303.698608,201.911835 
	C307.779846,199.446548 309.870728,195.675400 309.551910,191.083893 
	C309.252045,186.764771 305.881744,184.580826 302.085602,183.269821 
	C296.901245,181.479401 291.913757,182.030396 287.301483,185.046310 
	C282.260956,188.342285 276.994507,191.191605 271.201660,192.877792 
	C259.072296,196.408463 246.945374,199.959961 234.741837,203.219910 
	C223.373047,206.256851 223.112396,205.998718 220.836517,194.260956 
	C220.417648,192.100708 220.035217,190.314468 217.374146,190.313019 
	C212.758545,190.310501 208.142944,190.312317 203.412949,190.312317 
	C202.889618,193.579117 203.049088,196.419174 204.877441,198.729736 
	C209.830734,204.989410 214.947968,211.119690 220.022293,217.283081 
	C221.932419,219.603195 224.353973,220.007477 227.217499,219.334824 
	C240.149506,216.296982 253.102173,213.347137 266.852692,210.124481 
M140.086945,131.411774 
	C143.076660,132.061859 145.656937,130.967316 148.113815,129.467255 
	C153.202942,126.360077 154.310883,121.557884 153.677826,116.074532 
	C153.114059,111.191475 148.529953,112.908333 145.889069,111.438911 
	C145.041519,110.967331 143.959274,110.939758 143.043411,110.564911 
	C138.625000,108.756592 135.684372,105.505478 134.140808,101.033173 
	C133.067169,97.922440 133.788361,95.122948 136.076508,92.763657 
	C138.486053,90.279213 140.907196,91.569954 143.368713,92.741867 
	C145.317490,93.669662 147.278946,94.632004 149.330368,95.273026 
	C161.358047,99.031319 172.270660,92.041931 172.233185,80.102745 
	C172.208817,72.340385 170.300659,64.709976 168.233749,57.127556 
	C163.649628,57.505054 159.384796,58.083382 155.114136,58.130142 
	C152.139862,58.162708 151.005096,59.542118 149.595566,61.991035 
	C143.918015,71.855171 140.008911,82.898018 131.164246,90.722710 
	C129.466644,92.224541 129.314713,94.117065 129.297348,96.160446 
	C129.250717,101.646767 129.547180,107.175819 128.969543,112.609467 
	C127.792664,123.679909 129.405930,126.919800 140.086945,131.411774 
M68.672958,268.535156 
	C68.169449,254.909531 67.695770,241.282700 67.151718,227.658691 
	C66.802338,218.909622 68.305099,210.740509 74.361664,203.979370 
	C77.195488,200.815903 77.827446,196.868668 78.546692,192.950211 
	C79.113380,189.862900 77.978645,188.143387 74.562492,188.362488 
	C70.250694,188.639053 65.924393,189.075668 61.618668,188.950546 
	C57.449913,188.829422 56.241199,190.467865 56.257900,194.524796 
	C56.390125,226.639099 56.347473,258.754181 56.313137,290.869019 
	C56.309639,294.143036 56.887451,297.181396 59.033703,299.715973 
	C61.926075,303.131714 66.929306,302.364563 68.850723,298.305847 
	C69.740921,296.425446 69.783409,294.433807 69.700783,292.438812 
	C69.384361,284.798920 69.021408,277.160980 68.672958,268.535156 
M564.000366,444.434387 
	C562.705688,441.837646 562.269165,438.718079 559.480042,436.776184 
	C555.009216,441.215149 550.652710,445.530060 546.309021,449.857819 
	C544.058899,452.099640 544.121460,454.283875 545.969727,456.917938 
	C558.508118,474.787048 568.854980,494.002106 580.064209,512.688904 
	C582.114197,516.106445 584.364258,519.426575 586.776794,522.597717 
	C589.077209,525.621399 592.517090,525.682556 595.304810,523.922852 
	C598.200562,522.094971 595.517822,519.692383 594.611267,517.855103 
	C591.150879,510.841980 587.538696,503.908051 584.666992,496.618103 
	C577.901917,479.444794 571.107971,462.282867 564.000366,444.434387 
M417.680786,518.778503 
	C413.014618,512.652649 409.108307,506.043457 406.283112,498.910339 
	C403.418610,491.677948 403.812836,484.627136 408.833069,478.168091 
	C412.519775,473.424774 415.627228,468.262085 418.045593,462.768982 
	C421.152618,455.711609 422.874603,448.296234 422.690979,440.514435 
	C422.650208,438.786530 422.549835,437.055054 420.557159,436.456970 
	C418.449738,435.824402 417.637848,437.435516 416.767670,438.894104 
	C415.575562,440.892426 414.366302,442.881805 413.112061,444.841522 
	C407.518829,453.581116 399.530396,459.821747 391.307587,465.847870 
	C389.393738,467.250458 387.056305,468.465851 387.619537,471.737183 
	C390.880371,490.677124 399.660583,507.211517 410.021301,523.008057 
	C412.686737,527.071960 416.953278,527.581909 421.363800,525.305420 
	C421.416290,522.712952 419.310699,521.273315 417.680786,518.778503 
M115.611359,45.217136 
	C112.500832,56.727840 114.643898,67.306503 120.924095,77.762444 
	C124.058311,74.796593 125.148666,71.444466 126.508545,68.323112 
	C128.903580,62.825771 131.630142,57.515747 134.700394,52.374332 
	C138.936462,45.280651 144.743317,41.207191 153.456879,41.586296 
	C160.396332,41.888222 166.808762,39.317341 173.037674,36.485710 
	C174.408997,35.862312 175.802505,34.924648 175.576950,33.158463 
	C175.307816,31.051006 173.473816,31.465216 172.038895,31.352663 
	C164.099792,30.729925 156.196609,29.860044 148.330139,28.562433 
	C131.524307,25.790228 121.592209,30.732801 115.611359,45.217136 
M283.715851,225.340515 
	C279.208130,224.399094 275.021210,226.799744 270.539825,226.602417 
	C268.826569,226.526962 268.502106,228.531052 268.236023,230.029617 
	C265.961151,242.842667 264.399323,255.716080 266.527649,268.690704 
	C267.364136,273.790009 268.841766,278.798004 273.410217,282.120422 
	C276.649506,284.476166 279.608490,284.215546 282.259857,281.247284 
	C285.165894,277.993927 286.451904,273.993896 286.576080,269.775818 
	C287.007935,255.108887 285.326691,240.543335 283.715851,225.340515 
M199.813660,503.324799 
	C197.685471,503.614044 194.517395,502.534912 194.610794,506.217773 
	C194.741241,511.361877 195.247864,516.504578 195.796539,521.626160 
	C196.037384,523.874207 196.985107,525.582520 199.851913,525.758789 
	C216.453796,526.779358 233.043610,527.996338 249.645416,529.018127 
	C251.808884,529.151245 254.757278,529.763000 255.416168,526.570679 
	C256.095459,523.279480 253.310135,522.392212 250.981003,521.510498 
	C243.356995,518.624451 235.680588,515.876160 228.067276,512.962646 
	C224.637207,511.650055 220.721710,510.330261 218.967545,507.117371 
	C215.945267,501.581848 211.633438,501.905182 206.671982,502.888702 
	C204.731033,503.273468 202.697342,503.190430 199.813660,503.324799 
M559.447632,280.806763 
	C554.695251,282.923950 549.776001,284.913727 549.271301,291.163818 
	C548.253235,303.771942 552.268250,314.359467 562.082092,322.545197 
	C567.281189,326.881805 572.860596,325.132202 574.482056,318.639618 
	C574.798096,317.374084 574.687683,315.997742 574.738953,314.671143 
	C575.155151,303.908295 573.670105,293.103119 575.504883,282.367523 
	C575.885437,280.140808 574.402771,279.429413 572.499084,279.401062 
	C568.358643,279.339417 564.179138,278.907928 559.447632,280.806763 
M52.066341,491.732025 
	C50.539646,495.415863 49.124832,499.151398 47.453541,502.768433 
	C45.904694,506.120483 46.482975,508.195984 50.043873,509.847534 
	C60.890686,514.878357 71.557144,520.298523 82.410675,525.314209 
	C86.919952,527.398071 91.674461,529.002136 96.419815,530.500183 
	C98.434036,531.136047 100.965881,531.248047 102.157867,528.847595 
	C103.344254,526.458374 102.443207,524.155151 100.452736,522.629822 
	C98.224632,520.922424 95.780663,519.453857 93.298279,518.129456 
	C86.783813,514.653809 80.045357,510.997253 76.320641,504.607788 
	C71.685143,496.655975 64.162094,493.246185 56.796745,489.181366 
	C54.185951,487.740479 52.809978,488.095032 52.066341,491.732025 
z"/>
</svg>