<?xml version="1.0" encoding="utf-8"?>
<svg viewBox="292.238 93.516 473.424 790.21" xmlns="http://www.w3.org/2000/svg">
  <path fill="#000000" opacity="1.000000" stroke="none" d="&#10;M735.129883,480.944153 &#10;&#9;C711.425781,548.203979 681.776550,612.420105 649.911011,675.690491 &#10;&#9;C631.619202,712.009644 611.826111,747.497498 592.077332,783.021667 &#10;&#9;C580.506104,803.836060 569.171509,824.781921 557.723694,845.665039 &#10;&#9;C552.910400,854.445557 547.531982,862.852356 541.198303,870.629028 &#10;&#9;C539.185791,873.100159 536.961182,875.327209 534.290649,877.088989 &#10;&#9;C528.266296,881.063293 524.022583,880.989502 518.253479,876.595215 &#10;&#9;C509.960449,870.278503 504.703064,861.440369 499.504150,852.762573 &#10;&#9;C468.423492,800.884155 438.543732,748.313965 410.684113,694.632385 &#10;&#9;C388.428253,651.748413 367.518951,608.189697 348.883820,563.598816 &#10;&#9;C331.667023,522.401672 315.676514,480.719604 304.631226,437.361694 &#10;&#9;C299.288666,416.389709 295.517792,395.158569 294.512115,373.391846 &#10;&#9;C292.551849,330.963196 297.496460,289.649811 312.741302,249.866394 &#10;&#9;C323.297424,222.318802 338.998291,197.888947 359.225739,176.424362 &#10;&#9;C377.465576,157.068924 397.183350,139.478348 420.362946,126.092148 &#10;&#9;C442.846527,113.107918 467.061371,104.812874 492.572998,100.799896 &#10;&#9;C542.399414,92.962204 589.805115,101.481606 634.365051,124.670746 &#10;&#9;C659.895752,137.956940 681.338867,156.798065 700.369446,178.283234 &#10;&#9;C727.984375,209.459854 746.316895,245.473770 755.593689,286.072571 &#10;&#9;C761.425842,311.596161 762.000793,337.386169 760.731995,363.478729 &#10;&#9;C759.412354,390.617065 754.282288,416.944733 747.150024,442.969025 &#10;&#9;C743.678040,455.637756 739.244446,468.042969 735.129883,480.944153 &#10;M530.632446,458.647400 &#10;&#9;C549.036072,459.117767 567.171143,457.382324 584.984924,452.483917 &#10;&#9;C605.759033,446.771515 623.679749,436.153595 640.408752,422.684052 &#10;&#9;C660.620911,406.410034 676.717590,386.910889 688.824463,364.228302 &#10;&#9;C705.588318,332.820587 708.076599,299.072510 702.217651,264.616547 &#10;&#9;C695.745117,226.552246 677.089172,194.791595 649.787292,167.846069 &#10;&#9;C627.286682,145.639038 600.091736,131.932938 570.043335,123.117584 &#10;&#9;C550.401184,117.355125 530.470703,116.038986 510.259247,118.130257 &#10;&#9;C492.919403,119.924400 476.442932,125.097549 460.199371,131.288300 &#10;&#9;C414.783661,148.597122 382.518860,179.984985 361.648285,223.374878 &#10;&#9;C353.140289,241.063034 348.780914,259.985229 347.085938,279.600525 &#10;&#9;C345.686157,295.798981 345.788422,311.915314 349.153046,327.779480 &#10;&#9;C354.072144,350.973450 364.407349,371.589111 379.696045,389.879791 &#10;&#9;C400.033020,414.209961 424.251251,433.251648 453.343506,445.937683 &#10;&#9;C477.698883,456.558197 503.697144,457.592010 530.632446,458.647400 &#10;M554.983521,503.971161 &#10;&#9;C555.590698,507.573608 556.355713,511.130890 556.410706,514.834656 &#10;&#9;C556.477295,519.313965 558.688171,522.360474 563.300232,523.374023 &#10;&#9;C566.870239,524.158569 570.555908,524.688599 573.942200,525.981445 &#10;&#9;C581.340332,528.805969 586.680298,533.371887 587.600647,542.103699 &#10;&#9;C588.318726,548.917297 586.308533,555.286133 585.695190,561.869080 &#10;&#9;C585.045898,568.838562 586.307556,575.334106 593.131897,578.127869 &#10;&#9;C599.322327,580.661987 603.136780,586.142822 604.029724,592.763855 &#10;&#9;C606.214539,608.964966 595.664001,628.103577 575.064392,628.337097 &#10;&#9;C570.565857,628.388123 566.057861,628.258057 561.571228,628.512512 &#10;&#9;C556.848877,628.780212 552.739990,632.900696 552.444092,637.582336 &#10;&#9;C552.138672,642.415649 556.010376,643.460632 559.464417,644.710510 &#10;&#9;C560.706055,645.159851 562.039001,645.429504 563.353638,645.593506 &#10;&#9;C585.495117,648.355042 609.479187,634.131897 617.411804,613.355591 &#10;&#9;C624.263794,595.409546 620.986084,576.822021 604.160217,566.903931 &#10;&#9;C601.673523,565.438171 601.904175,563.561462 602.546265,561.342041 &#10;&#9;C604.506104,554.566711 605.375549,547.676575 604.730469,540.617493 &#10;&#9;C603.750732,529.895325 599.772766,520.961914 589.841919,515.595398 &#10;&#9;C585.716980,513.366394 581.403137,511.647247 576.659668,511.230072 &#10;&#9;C573.497070,510.951935 571.680115,509.723053 571.376099,506.025330 &#10;&#9;C571.067139,502.267670 570.706909,498.431915 569.354980,494.765106 &#10;&#9;C563.555847,479.036804 546.138550,462.769653 519.148926,466.284180 &#10;&#9;C501.013702,468.645752 484.429932,485.893951 482.408569,505.223145 &#10;&#9;C482.133240,507.856201 482.164825,509.951416 478.515289,510.280090 &#10;&#9;C463.273987,511.652832 453.555237,520.457153 450.234039,535.298462 &#10;&#9;C448.353485,543.702026 449.271210,551.801575 452.270294,559.787903 &#10;&#9;C453.049500,561.862793 454.370239,564.059448 451.121857,565.675598 &#10;&#9;C436.283936,573.057861 429.832764,592.645325 434.423981,608.872437 &#10;&#9;C439.407623,626.486511 451.945496,637.222961 468.736847,643.080017 &#10;&#9;C477.049896,645.979736 485.841553,645.768738 494.341644,643.526611 &#10;&#9;C499.229034,642.237427 500.234833,638.505310 497.415863,634.252502 &#10;&#9;C495.702545,631.667725 493.404938,629.725403 490.180847,629.423340 &#10;&#9;C487.530426,629.175049 484.854187,629.216003 482.192383,629.072693 &#10;&#9;C471.746002,628.510498 462.697357,625.203247 456.260559,616.340637 &#10;&#9;C445.284729,601.228333 449.698578,582.250671 465.644562,576.450317 &#10;&#9;C471.982941,574.144836 473.788269,570.967712 472.038361,564.217407 &#10;&#9;C470.704803,559.073364 468.664795,554.109863 467.381683,548.955872 &#10;&#9;C464.833984,538.722290 471.031158,528.583252 481.211548,525.744263 &#10;&#9;C484.966980,524.697021 488.791779,524.881531 492.617004,524.736328 &#10;&#9;C498.145233,524.526428 499.669525,522.818909 499.726562,517.392578 &#10;&#9;C499.771942,513.072998 499.205292,508.726624 500.186035,504.443268 &#10;&#9;C502.852112,492.799438 513.896851,483.253937 525.280457,482.737274 &#10;&#9;C538.205627,482.150635 550.595703,490.768982 554.983521,503.971161 &#10;M518.416321,695.187622 &#10;&#9;C518.386597,697.187805 518.432251,699.153198 519.043213,701.114441 &#10;&#9;C520.358093,705.335632 522.560486,708.334351 527.531433,707.859741 &#10;&#9;C531.840210,707.448181 535.053589,704.175415 535.562927,699.632385 &#10;&#9;C535.729126,698.149292 535.670593,696.635986 535.649170,695.137451 &#10;&#9;C535.380127,676.320496 535.121216,657.503418 534.796143,638.687378 &#10;&#9;C534.750671,636.052917 535.082642,633.865417 537.535828,632.212708 &#10;&#9;C549.216064,624.343689 557.748047,612.926758 568.778809,604.303711 &#10;&#9;C570.881958,602.659607 572.359924,600.357727 573.566650,597.957031 &#10;&#9;C575.437622,594.234619 574.087219,590.436890 570.080627,589.119263 &#10;&#9;C565.284302,587.541931 560.659607,587.361694 556.875427,591.805359 &#10;&#9;C551.986145,597.546631 545.736572,601.806274 540.017090,606.636841 &#10;&#9;C538.839355,607.631531 537.588623,609.084045 534.547607,607.543762 &#10;&#9;C534.547607,602.971375 534.533386,597.855408 534.556824,592.739624 &#10;&#9;C534.563354,591.304626 535.269409,590.289673 536.484009,589.463745 &#10;&#9;C547.040039,582.285706 555.361816,572.653931 564.417786,563.835632 &#10;&#9;C566.425537,561.880554 568.252991,559.617493 569.674194,557.207764 &#10;&#9;C572.988525,551.588135 570.022278,546.109131 563.523315,545.342468 &#10;&#9;C559.751343,544.897522 556.696899,546.162109 554.064880,548.820251 &#10;&#9;C549.376099,553.555542 544.663940,558.269226 539.878296,562.906006 &#10;&#9;C538.649719,564.096313 537.633545,565.943054 535.356201,565.405579 &#10;&#9;C534.232117,563.714172 534.678345,561.834778 534.674805,560.059753 &#10;&#9;C534.645752,545.731140 534.684509,531.402283 534.679138,517.073547 &#10;&#9;C534.678406,515.084045 534.743103,513.096191 534.038513,511.150635 &#10;&#9;C531.688538,504.661743 525.466736,503.222412 520.691772,508.119568 &#10;&#9;C518.077637,510.800568 517.237244,514.116150 517.358582,517.745178 &#10;&#9;C517.808899,531.219543 518.292480,544.692932 518.705750,558.168396 &#10;&#9;C518.772705,560.351624 519.711853,562.731201 517.868347,564.742554 &#10;&#9;C515.315002,563.910400 513.937988,561.935852 512.375549,560.271423 &#10;&#9;C508.043762,555.656555 503.943115,550.820557 499.529175,546.288025 &#10;&#9;C494.638611,541.265991 488.970184,542.014587 485.445801,547.912781 &#10;&#9;C483.064362,551.898132 484.587006,555.242920 487.241333,558.369873 &#10;&#9;C494.918976,567.414612 503.507019,575.595825 512.648132,583.064636 &#10;&#9;C517.169800,586.759033 519.327942,590.351318 518.327515,596.102966 &#10;&#9;C517.490356,600.915894 518.787903,605.989075 517.194946,610.770203 &#10;&#9;C514.264709,610.657288 513.068848,608.613647 511.497650,607.243652 &#10;&#9;C504.845398,601.443298 498.379974,595.423584 491.621613,589.751831 &#10;&#9;C487.579254,586.359375 481.444824,586.985779 478.556030,590.591431 &#10;&#9;C476.128784,593.621033 476.703583,598.185181 480.796875,601.590088 &#10;&#9;C492.853394,611.618774 502.785370,623.886597 515.010864,633.711060 &#10;&#9;C516.389099,634.818665 517.278503,635.956116 517.360352,637.833923 &#10;&#9;C517.577759,642.816406 518.190491,647.788635 518.249939,652.769653 &#10;&#9;C518.414734,666.596985 518.378052,680.426819 518.416321,695.187622 &#10;z" transform="matrix(0.9999999999999999, 0, 0, 0.9999999999999999, 0, 0)"/>
  <path fill="#000000" opacity="1.000000" stroke="none" d="&#10;M367.771790,259.993530 &#10;&#9;C372.890869,232.557419 386.003235,209.604004 404.283630,189.608353 &#10;&#9;C423.636475,168.439743 447.202118,153.416641 474.528107,144.441147 &#10;&#9;C492.140472,138.656174 509.868103,134.035263 528.732361,134.541885 &#10;&#9;C550.555542,135.127960 571.461243,139.909012 591.101624,148.778091 &#10;&#9;C627.065674,165.018539 654.618225,190.900330 672.156433,226.366135 &#10;&#9;C692.392944,267.288422 693.997742,309.328583 675.328613,351.266266 &#10;&#9;C664.410095,375.793274 646.999268,395.346375 625.192444,411.087158 &#10;&#9;C612.976990,419.904572 600.631958,428.294403 585.933228,432.451172 &#10;&#9;C571.298828,436.589691 556.231262,438.810150 541.190430,439.796143 &#10;&#9;C517.211731,441.368134 493.180573,440.384247 469.942078,433.299438 &#10;&#9;C457.497467,429.505371 445.867798,423.695923 434.970306,416.460968 &#10;&#9;C423.039215,408.539886 410.983521,400.913727 401.132477,390.212646 &#10;&#9;C374.494354,361.276031 361.883301,327.310272 363.794678,288.044281 &#10;&#9;C364.247406,278.743896 365.798279,269.538452 367.771790,259.993530 &#10;M426.014343,227.332596 &#10;&#9;C422.517365,227.321030 418.994843,227.031158 415.528076,227.349075 &#10;&#9;C404.270294,228.381500 395.135254,233.457123 388.831268,242.873550 &#10;&#9;C370.322632,270.520416 381.935303,312.988800 416.514679,323.993713 &#10;&#9;C434.622070,329.756378 458.087036,318.835754 464.638245,300.997406 &#10;&#9;C468.539276,290.375244 468.259949,279.869598 465.083893,269.176453 &#10;&#9;C464.045837,265.681519 462.013977,262.268005 463.010834,257.446564 &#10;&#9;C474.448547,266.807678 486.671570,269.114960 500.244934,264.517639 &#10;&#9;C513.871338,259.902283 521.933655,249.911148 527.032104,235.783203 &#10;&#9;C541.578003,262.867065 561.004395,273.328705 589.007141,259.425751 &#10;&#9;C590.039734,262.119598 589.176270,263.978760 588.685303,265.864899 &#10;&#9;C584.310181,282.671082 584.795593,298.255554 597.749878,311.933899 &#10;&#9;C607.757507,322.500946 624.642090,327.508575 637.827881,323.201569 &#10;&#9;C670.018860,312.686707 679.241272,273.024994 666.577087,248.913895 &#10;&#9;C660.102051,236.586029 645.213379,224.326645 627.283691,227.106445 &#10;&#9;C622.384460,227.866013 617.660461,229.478943 611.873413,230.107681 &#10;&#9;C612.772949,222.853302 612.841675,215.942871 612.721863,209.031448 &#10;&#9;C612.537231,198.382812 609.352844,188.776230 602.984131,180.200500 &#10;&#9;C589.566162,162.132645 570.195007,158.160461 550.474060,169.041672 &#10;&#9;C539.537842,175.075882 533.685974,184.827652 529.023254,195.731506 &#10;&#9;C528.295593,197.433060 528.053894,199.534943 526.261902,200.574722 &#10;&#9;C524.283020,199.486069 524.181580,197.705704 523.571899,196.199127 &#10;&#9;C520.084534,187.581787 515.170166,180.033417 507.947479,173.963394 &#10;&#9;C492.865692,161.288544 473.380524,159.691422 458.236359,171.103882 &#10;&#9;C442.516907,182.949860 437.008911,199.531143 438.878235,218.729523 &#10;&#9;C439.300079,223.061935 440.672455,227.301788 441.710571,232.057510 &#10;&#9;C436.206757,230.808319 431.884583,227.995819 426.014343,227.332596 &#10;M618.841309,383.291016 &#10;&#9;C624.651855,364.380280 621.431763,347.474854 607.567444,332.993347 &#10;&#9;C602.044983,327.225098 596.563599,321.401703 590.775208,315.907166 &#10;&#9;C578.579407,304.330505 567.599487,291.512085 554.855591,280.514954 &#10;&#9;C542.189392,269.584808 527.972839,265.760956 511.747620,271.857300 &#10;&#9;C504.911407,274.425873 498.870483,278.244232 493.710449,283.241028 &#10;&#9;C476.979553,299.442749 460.125031,315.538239 443.949310,332.284332 &#10;&#9;C432.979309,343.641144 428.558472,357.595886 431.286926,373.584686 &#10;&#9;C436.262970,402.743958 469.393799,421.109528 494.716522,409.188080 &#10;&#9;C500.880219,406.286316 507.266266,403.830536 513.643066,401.415253 &#10;&#9;C520.055969,398.986359 526.626160,397.238068 533.611023,398.714172 &#10;&#9;C542.379883,400.567230 549.996338,405.208801 557.927368,408.985229 &#10;&#9;C582.351440,420.614960 611.648804,405.095795 618.841309,383.291016 &#10;z" transform="matrix(0.9999999999999999, 0, 0, 0.9999999999999999, 0, 0)"/>
  <path fill="#000000" opacity="1.000000" stroke="none" d="&#10;M542.738892,205.065430 &#10;&#9;C545.489624,195.684616 550.686768,188.610703 558.715027,183.695206 &#10;&#9;C571.538940,175.843414 586.048218,180.215286 592.558228,193.878067 &#10;&#9;C599.367615,208.169205 594.561096,230.904083 582.605652,241.199814 &#10;&#9;C574.447876,248.225113 565.256958,250.691788 555.341980,246.003204 &#10;&#9;C545.578552,241.386261 541.358459,232.713242 540.697144,222.204163 &#10;&#9;C540.339600,216.520554 540.832336,210.906509 542.738892,205.065430 &#10;M550.363281,216.112595 &#10;&#9;C550.886963,219.486771 551.050842,223.031586 554.681396,225.331757 &#10;&#9;C556.626099,222.655426 557.137207,219.713989 557.714478,216.831009 &#10;&#9;C559.135193,209.736664 560.846069,202.841736 566.881775,197.950684 &#10;&#9;C568.303467,196.798599 569.462097,195.006683 568.098389,193.121765 &#10;&#9;C566.759399,191.271133 564.777954,191.181107 562.690125,191.944565 &#10;&#9;C560.433533,192.769730 558.600281,194.134384 557.060059,195.951172 &#10;&#9;C552.335571,201.524094 549.892334,207.883881 550.363281,216.112595 &#10;z" transform="matrix(0.9999999999999999, 0, 0, 0.9999999999999999, 0, 0)"/>
  <path fill="#000000" opacity="1.000000" stroke="none" d="&#10;M466.700439,238.221283 &#10;&#9;C458.773193,226.099396 454.005920,213.675781 458.561188,199.318939 &#10;&#9;C464.953247,179.172897 482.675842,174.139343 498.499878,187.992966 &#10;&#9;C509.611908,197.721359 514.486084,216.517715 509.534668,230.546982 &#10;&#9;C502.269135,251.133041 481.134979,255.084946 466.700439,238.221283 &#10;M478.745514,200.296799 &#10;&#9;C479.099213,199.543732 479.445404,198.787018 479.808075,198.038315 &#10;&#9;C480.933685,195.714798 481.142120,193.418579 478.787506,191.804688 &#10;&#9;C476.434418,190.191833 474.340942,191.386047 472.497894,193.021469 &#10;&#9;C470.846710,194.486679 469.827972,196.408188 468.878540,198.360916 &#10;&#9;C464.907990,206.527008 466.540924,214.548767 469.593231,222.493729 &#10;&#9;C470.342194,224.443161 470.915253,227.138947 473.757599,226.634445 &#10;&#9;C476.917358,226.073608 475.752014,223.247421 475.696747,221.283646 &#10;&#9;C475.501648,214.355957 473.885437,207.268311 478.745514,200.296799 &#10;z" transform="matrix(0.9999999999999999, 0, 0, 0.9999999999999999, 0, 0)"/>
  <path fill="#000000" opacity="1.000000" stroke="none" d="&#10;M402.243164,291.570862 &#10;&#9;C397.878998,281.865448 396.238312,272.182709 398.729065,262.066345 &#10;&#9;C402.510956,246.705902 416.627380,240.479279 430.425323,248.026611 &#10;&#9;C443.636078,255.252762 452.636688,274.249969 449.278595,288.458038 &#10;&#9;C446.968353,298.232605 441.386902,305.206207 431.138885,307.647156 &#10;&#9;C421.665283,309.903656 414.229523,306.195862 407.776611,299.687256 &#10;&#9;C405.538239,297.429535 403.759155,294.806274 402.243164,291.570862 &#10;M407.212585,275.369080 &#10;&#9;C407.609894,276.801453 407.884674,278.283020 408.434875,279.654053 &#10;&#9;C409.158020,281.456085 409.756073,283.850159 412.271454,283.524628 &#10;&#9;C414.936707,283.179749 414.683624,280.700592 414.644928,278.766815 &#10;&#9;C414.521240,272.588562 415.044006,266.552429 417.407440,260.738678 &#10;&#9;C418.073425,259.100403 418.507233,256.984009 416.485138,255.843338 &#10;&#9;C414.566406,254.760956 412.951904,256.028625 411.612091,257.281891 &#10;&#9;C406.493439,262.069916 405.640289,268.038544 407.212585,275.369080 &#10;z" transform="matrix(0.9999999999999999, 0, 0, 0.9999999999999999, 0, 0)"/>
  <path fill="#000000" opacity="1.000000" stroke="none" d="&#10;M626.738037,307.284729 &#10;&#9;C613.485107,307.218414 604.624329,298.177277 603.648987,284.292755 &#10;&#9;C603.116150,276.707245 604.168701,269.385223 606.820618,262.261292 &#10;&#9;C610.826843,251.498749 624.860046,243.094177 636.064636,244.808212 &#10;&#9;C645.239929,246.211823 651.877747,252.981537 653.652100,263.380005 &#10;&#9;C656.707275,281.285034 646.877563,302.928314 626.738037,307.284729 &#10;M622.435974,257.638550 &#10;&#9;C612.332397,264.163361 608.459167,279.861877 615.720337,284.878815 &#10;&#9;C616.852783,284.584412 617.267700,283.579651 617.567993,282.678345 &#10;&#9;C620.038208,275.263947 622.449280,267.923035 626.964355,261.300842 &#10;&#9;C629.359863,257.787170 626.543884,256.678864 622.435974,257.638550 &#10;z" transform="matrix(0.9999999999999999, 0, 0, 0.9999999999999999, 0, 0)"/>
  <path fill="#000000" opacity="1.000000" stroke="none" d="&#10;M544.052002,293.886353 &#10;&#9;C562.854187,312.546753 581.847107,330.544617 599.708252,349.603149 &#10;&#9;C610.851501,361.493500 604.285400,383.365204 588.396973,391.347443 &#10;&#9;C577.714478,396.714325 567.223633,396.045258 556.836792,390.451874 &#10;&#9;C550.543457,387.062866 544.472717,383.225403 537.449951,381.331818 &#10;&#9;C525.027344,377.982361 513.377380,380.631805 502.043823,385.717621 &#10;&#9;C498.096588,387.488861 494.322083,389.641022 490.408508,391.491943 &#10;&#9;C479.109192,396.836060 468.097687,396.698853 457.936218,388.922455 &#10;&#9;C447.573792,380.992249 445.842682,370.037170 447.999603,357.969208 &#10;&#9;C448.977905,352.495575 451.941681,348.065063 455.828827,344.312653 &#10;&#9;C471.054199,329.614990 485.872986,314.516388 500.619354,299.342926 &#10;&#9;C503.289948,296.595001 506.206970,294.098816 509.521149,292.111847 &#10;&#9;C522.253601,284.478210 531.757690,284.906952 544.052002,293.886353 &#10;M478.515594,352.801086 &#10;&#9;C479.729553,350.352448 480.608032,347.827240 478.875275,345.308167 &#10;&#9;C477.991211,344.022888 476.548553,344.375305 475.220673,344.679779 &#10;&#9;C469.343231,346.027649 459.651276,356.156128 458.683533,362.108368 &#10;&#9;C458.093170,365.739685 460.201935,368.283264 462.973541,369.831635 &#10;&#9;C465.486694,371.235596 466.756744,368.525574 467.995117,366.947571 &#10;&#9;C471.468597,362.521423 474.766876,357.957764 478.515594,352.801086 &#10;M508.729492,306.206543 &#10;&#9;C505.062134,309.921417 502.260468,314.210449 500.249603,319.020294 &#10;&#9;C499.543243,320.709778 498.530365,322.556305 500.292023,324.059265 &#10;&#9;C501.839630,325.379608 503.822357,325.973022 505.897430,325.393280 &#10;&#9;C508.038727,324.795044 509.885223,323.593262 511.142609,321.769775 &#10;&#9;C514.439880,316.987854 517.640381,312.138794 520.846130,307.294434 &#10;&#9;C521.848450,305.779846 521.943909,304.171936 520.904785,302.613098 &#10;&#9;C519.768372,300.908234 518.021729,301.112671 516.395569,301.415802 &#10;&#9;C513.511963,301.953369 511.247131,303.638794 508.729492,306.206543 &#10;z" transform="matrix(0.9999999999999999, 0, 0, 0.9999999999999999, 0, 0)"/>
</svg>